<svg xmlns="http://www.w3.org/2000/svg" xmlns:xlink="http://www.w3.org/1999/xlink" aria-hidden="true" role="img" class="iconify iconify--logos" width="31.88" height="32" preserveAspectRatio="xMidYMid meet" viewBox="0 0 256 257"><defs><linearGradient id="IconifyId1813088fe1fbc01fb466" x1="-.828%" x2="57.636%" y1="7.652%" y2="78.411%"><stop offset="0" stop-color="#41D1FF"></stop><stop offset="1" stop-color="#BD34FE"></stop></linearGradient><linearGradient id="IconifyId1813088fe1fbc01fb467" x1="43.376%" x2="50.316%" y1="2.242%" y2="89.03%"><stop offset="0" stop-color="#FFEA83"></stop><stop offset=".083" stop-color="#FFDD35"></stop><stop offset="1" stop-color="#FFA800"></stop></linearGradient></defs><path fill="url(#IconifyId1813088fe1fbc01fb466)" d="M255.153 37.938L134.897 252.976c-2.483 4.44-8.862 4.466-11.382.048L.875 37.958c-2.746-4.814 1.371-10.646 6.827-9.67l120.385 21.517a6.537 6.537 0 007.991-4.687L252.28 5.593c3.037-5.732 11.396-4.17 12.873 2.762z"></path><path fill="url(#IconifyId1813088fe1fbc01fb467)" d="M185.432.063L96.44 17.501a3.268 3.268 0 00-2.634 3.014l-5.474 92.456a3.268 3.268 0 003.997 3.378l24.777-5.718c2.318-.535 4.413 1.507 3.936 3.838l-7.361 36.047c-.495 2.426 1.782 4.5 4.151 3.78l15.906-4.828c2.372-.72 4.898.815 4.637 3.276l-6.969 64.642c-.503 4.576 5.173 6.927 8.163 3.387l58.476-72.685c1.57-1.952.907-4.822-1.461-5.658l-25.924-9.138c-2.398-.846-3.046-3.928-1.218-5.73l54.402-53.128c1.74-1.698.757-4.59-1.661-4.59l-84.72-.016c-2.418 0-3.351-2.334-2.145-4.172l55.758-82.953c1.166-1.736-.039-4.032-2.278-3.724z"></path></svg>
